<?xml version="1.0" encoding="UTF-8"?>
<svg id="Layer_2" xmlns="http://www.w3.org/2000/svg" xmlns:xlink="http://www.w3.org/1999/xlink" viewBox="0 0 241.56 37.17">
  <defs>
    <style>
      .cls-1 {
        fill: url(#linear-gradient);
      }

      .cls-2 {
        fill: #fff;
      }
    </style>
    <linearGradient id="linear-gradient" x1="185.89" y1="19.54" x2="209.35" y2="19.54" gradientUnits="userSpaceOnUse">
      <stop offset="0" stop-color="#92973c"/>
      <stop offset="1" stop-color="#4a5219"/>
    </linearGradient>
  </defs>
  <g id="Layer_1-2" data-name="Layer_1">
    <g>
      <polygon class="cls-2" points="163.31 0 155.34 11.77 151.76 11.78 159.8 0 25.31 0 0 37.14 22.73 37.14 28.98 27.91 43.59 27.91 37.34 37.14 76.35 37.14 80.18 31.48 84.54 37.17 134.36 37.17 140.66 27.91 144.63 27.91 138.36 37.14 176.86 37.14 183.34 27.54 201.72 27.54 195.24 37.14 215.9 37.14 216.41 37.14 241.56 0 163.31 0"/>
      <polygon class="cls-1" points="191.08 15.7 185.89 23.38 204.14 23.38 209.35 15.69 191.08 15.7"/>
      <g>
        <polygon points="75.97 11.58 88.35 11.58 93.54 3.91 81.16 3.91 75.97 11.58"/>
        <polygon points="61.73 32.62 74.11 32.62 85.56 15.69 73.19 15.69 61.73 32.62"/>
        <polygon points="217.34 3.92 206.13 11.59 216.04 11.59 201.79 32.63 214.18 32.63 233.61 3.92 217.34 3.92"/>
        <polygon points="211.35 3.91 165.54 3.91 160.35 11.58 177.41 11.58 163.17 32.62 175.61 32.62 189.85 11.58 200.15 11.58 211.35 3.91"/>
        <polygon points="143.62 15.69 151.59 3.91 139.15 3.91 119.63 32.62 132.16 32.62 138.41 23.38 152.46 23.38 146.26 32.62 146.59 32.62 158.87 32.62 159.11 32.62 170.57 15.69 143.62 15.69"/>
        <polygon points="51.56 15.69 31.64 15.7 34.43 11.58 49.97 11.58 49.96 11.59 51.13 11.59 62.35 3.92 27.22 3.91 27.16 3.99 27.15 3.99 7.65 32.62 7.79 32.62 19.92 32.62 20.16 32.62 26.43 23.38 46.36 23.38 51.56 15.69"/>
        <polygon points="67.1 3.92 56.07 11.59 59.86 11.59 45.62 32.63 58 32.63 77.43 3.92 67.1 3.92"/>
        <polygon points="110.04 15.69 100.39 22.36 111.87 22.36 109.32 26.13 94.91 26.12 104.77 11.58 125.88 11.58 137.06 3.91 102.59 3.91 93.26 10.29 82.45 26.25 86.78 32.64 116.43 32.62 116.43 32.62 116.47 32.62 127.89 15.69 110.04 15.69"/>
      </g>
    </g>
  </g>
</svg>